<?xml version="1.0" standalone="no"?>
<!DOCTYPE svg PUBLIC "-//W3C//DTD SVG 20010904//EN"
 "http://www.w3.org/TR/2001/REC-SVG-20010904/DTD/svg10.dtd">
<svg version="1.0" xmlns="http://www.w3.org/2000/svg"
 width="260.000000pt" height="260.000000pt" viewBox="0 0 260.000000 260.000000"
 preserveAspectRatio="xMidYMid meet">
<metadata>
Created by potrace 1.11, written by Peter Selinger 2001-2013
</metadata>
<g transform="translate(0.000000,260.000000) scale(0.100000,-0.100000)"
fill="#000000" stroke="none">
<path d="M1060 2158 l-195 -30 -123 -76 c-100 -62 -140 -94 -205 -165 -45 -49
-99 -113 -119 -143 l-36 -54 21 -39 c21 -39 26 -41 127 -69 58 -16 110 -28
115 -25 6 2 37 45 70 94 136 206 315 307 522 297 74 -4 85 -2 102 16 34 38
101 143 101 159 0 10 -25 24 -78 41 -42 14 -84 25 -92 25 -8 -1 -103 -15 -210
-31z"/>
<path d="M1455 2048 c-29 -41 -95 -147 -95 -153 0 -3 7 -5 16 -5 8 0 13 -4 9
-9 -6 -10 34 -37 48 -33 4 1 7 -3 7 -8 0 -17 54 -60 68 -55 8 3 10 0 6 -7 -4
-6 -1 -16 7 -22 8 -6 19 -19 24 -28 6 -9 24 -36 40 -59 l30 -42 0 -198 0 -197
55 -12 c30 -7 67 -16 81 -20 27 -8 27 -8 32 53 2 34 2 130 0 212 -4 116 -9
159 -23 190 -10 22 -33 77 -51 123 -18 45 -37 82 -41 82 -4 0 -8 7 -8 15 0 22
-95 115 -117 115 -11 0 -14 3 -6 8 8 5 2 17 -18 40 -34 38 -43 39 -64 10z m35
-38 c0 -5 -4 -10 -10 -10 -5 0 -10 5 -10 10 0 6 5 10 10 10 6 0 10 -4 10 -10z
m-30 -20 c0 -5 -4 -10 -10 -10 -5 0 -10 5 -10 10 0 6 5 10 10 10 6 0 10 -4 10
-10z m-20 -50 c0 -5 -7 -10 -15 -10 -8 0 -15 5 -15 10 0 6 7 10 15 10 8 0 15
-4 15 -10z m-13 -52 c-3 -8 -6 -5 -6 6 -1 11 2 17 5 13 3 -3 4 -12 1 -19z
m203 -18 c0 -5 -2 -10 -4 -10 -3 0 -8 5 -11 10 -3 6 -1 10 4 10 6 0 11 -4 11
-10z m-110 -24 c0 -2 -7 -9 -15 -16 -12 -10 -15 -10 -15 4 0 9 7 16 15 16 8 0
15 -2 15 -4z m95 -16 c3 -5 1 -10 -4 -10 -6 0 -11 5 -11 10 0 6 2 10 4 10 3 0
8 -4 11 -10z m65 -10 c0 -5 -2 -10 -4 -10 -3 0 -8 5 -11 10 -3 6 -1 10 4 10 6
0 11 -4 11 -10z m-129 -43 c-10 -9 -11 -8 -5 6 3 10 9 15 12 12 3 -3 0 -11 -7
-18z m49 -58 c0 -5 -7 -9 -15 -9 -9 0 -12 6 -9 15 6 15 24 11 24 -6z m110 -4
c0 -8 -4 -15 -10 -15 -5 0 -10 7 -10 15 0 8 5 15 10 15 6 0 10 -7 10 -15z m17
-47 c-3 -8 -6 -5 -6 6 -1 11 2 17 5 13 3 -3 4 -12 1 -19z m-22 -18 c3 -5 1
-10 -4 -10 -6 0 -11 5 -11 10 0 6 2 10 4 10 3 0 8 -4 11 -10z m-25 -345 c0 -5
-5 -3 -10 5 -5 8 -10 20 -10 25 0 6 5 3 10 -5 5 -8 10 -19 10 -25z m90 -75 c0
-5 -8 -10 -17 -10 -15 0 -16 2 -3 10 19 12 20 12 20 0z"/>
<path d="M1353 1697 c-24 -17 -43 -37 -43 -44 0 -7 14 -32 31 -56 45 -62 59
-102 59 -174 0 -69 -13 -102 -62 -165 -16 -21 -28 -43 -26 -50 4 -12 107 -36
159 -37 32 -1 33 2 54 160 28 210 18 288 -42 359 -42 49 -71 51 -130 7z"/>
<path d="M1141 1563 c-30 -6 -83 -53 -77 -69 3 -8 -1 -11 -8 -8 -20 8 -28 -87
-9 -103 9 -6 10 -14 4 -17 -5 -3 -11 0 -14 6 -3 9 -7 7 -12 -4 -9 -23 1 -49
17 -44 7 1 10 1 6 -1 -18 -10 -6 -24 15 -18 17 5 19 4 7 -4 -12 -8 -10 -14 13
-39 15 -15 27 -33 27 -40 0 -18 18 -14 29 6 6 9 11 14 11 9 0 -11 52 18 74 42
11 12 16 24 13 27 -3 4 0 13 8 21 8 8 15 28 15 44 0 16 5 29 10 29 13 0 13 70
0 90 -9 13 -11 13 -19 0 -6 -8 -13 -12 -16 -8 -3 3 1 13 10 21 18 19 19 31 3
45 -16 13 -76 21 -107 15z m96 -205 c-3 -8 -6 -5 -6 6 -1 11 2 17 5 13 3 -3 4
-12 1 -19z m-117 -8 c0 -5 -5 -10 -11 -10 -5 0 -7 5 -4 10 3 6 8 10 11 10 2 0
4 -4 4 -10z m97 -46 c-3 -3 -12 -4 -19 -1 -8 3 -5 6 6 6 11 1 17 -2 13 -5z
m-87 -24 c0 -5 -2 -10 -4 -10 -3 0 -8 5 -11 10 -3 6 -1 10 4 10 6 0 11 -4 11
-10z m45 -20 c3 -5 -1 -10 -9 -10 -9 0 -16 5 -16 10 0 6 4 10 9 10 6 0 13 -4
16 -10z"/>
<path d="M1257 1162 c-13 -2 -17 -10 -14 -22 3 -12 0 -17 -8 -14 -7 3 -15 -5
-19 -20 -3 -14 -10 -26 -15 -26 -20 0 -76 -72 -88 -112 -12 -40 -10 -78 3 -65
3 3 20 1 38 -4 26 -7 43 -5 77 10 56 25 138 83 139 97 0 7 7 15 16 18 9 4 14
13 10 21 -3 9 0 15 9 15 7 0 17 9 20 20 3 11 13 20 21 20 8 0 14 7 14 15 0 16
-60 31 -85 21 -8 -3 -15 -1 -15 4 0 4 -15 12 -32 16 -45 11 -50 11 -71 6z m-7
-76 c0 -2 -7 -7 -16 -10 -8 -3 -12 -2 -9 4 6 10 25 14 25 6z m27 -38 c-3 -7
-5 -2 -5 12 0 14 2 19 5 13 2 -7 2 -19 0 -25z m-50 -35 c-3 -10 -5 -4 -5 12 0
17 2 24 5 18 2 -7 2 -21 0 -30z m63 -13 c0 -5 -5 -10 -11 -10 -5 0 -7 5 -4 10
3 6 8 10 11 10 2 0 4 -4 4 -10z"/>
<path d="M1813 955 c-27 -41 -28 -45 -9 -45 17 0 56 46 56 66 0 25 -25 14 -47
-21z"/>
<path d="M1632 750 c-47 -42 -137 -97 -191 -117 -19 -7 -40 -18 -48 -24 -7 -6
-41 -22 -76 -34 l-62 -23 1 -43 c2 -59 17 -67 96 -56 35 5 78 11 96 13 56 8
182 144 182 196 0 11 13 23 35 32 32 14 35 19 35 55 0 52 -12 52 -68 1z"/>
</g>
</svg>
